<svg xmlns="http://www.w3.org/2000/svg" viewBox="0 0 256 256">
    <defs>
        <style>.a{fill:#fff;}</style>
    </defs>
    <title>Qiy</title>
    <path class="a" d="M253.85,133.7c0-44.4-55.2-78.9-126-78.9-3.3,0-6.6,0-9.6.3a35.42,35.42,0,0,0-60.3,12.6c-33.9,14.1-55.8,38.1-55.8,66,0,44.4,55.2,78.9,126,78.9a206.84,206.84,0,0,0,41.7-4.2,43.05,43.05,0,0,0,9.6,3.9,44.75,44.75,0,0,0,6.3.6c14.7,0,29.7-9.3,36.9-19.8a18.9,18.9,0,0,0,3-8.7C243,170.6,253.85,153.2,253.85,133.7Z"/>
    <path d="M82.85,106.1c-3.3,18.9,6.3,58.8,26.4,66.3,7.5,2.7,14.7-2.1,21-6,6-3.9,9.9-9.9,14.4-15.3.3-.3,11.4,16.5,12.6,18a137.17,137.17,0,0,0,11.4,14.7c3.3,3.6,8.7,9.3,13.8,10.5,9,1.8,20.4-5.4,24.9-11.7-9.3-3.6-23.7-20.7-29.4-28.2-5.4-7.2-9.6-16.8-16.2-22.8-6.6-6.3-14.7-3.3-21.9.6-5.1,3-10.2,6-15.6,6.6a14.63,14.63,0,0,1-10.5-3c-6.9-4.8-10.5-13.2-13.2-21-1.8-5.4-3.3-16.2-10.8-16.5h-.3c-3.9,0-6,5.1-6.6,7.8"/>
    <circle cx="91.55" cy="78.8" r="17.7"/>
    <path d="M127.85,72.8c-59.7,0-108,27.3-108,60.9s48.3,60.9,108,60.9,108-27.3,108-60.9S187.55,72.8,127.85,72.8Zm0,103.2c-50.7,0-91.5-22.5-91.5-50.1s41.1-50.1,91.5-50.1c50.7,0,91.5,22.5,91.5,50.1S178.55,176,127.85,176Z"/>
</svg>